<?xml version="1.0" encoding="utf-8"?>
<!-- Generator: Adobe Illustrator 18.0.0, SVG Export Plug-In . SVG Version: 6.00 Build 0)  -->
<!DOCTYPE svg PUBLIC "-//W3C//DTD SVG 1.1//EN" "http://www.w3.org/Graphics/SVG/1.1/DTD/svg11.dtd">
<svg version="1.1" id="Layer_1" xmlns="http://www.w3.org/2000/svg" xmlns:xlink="http://www.w3.org/1999/xlink" x="0px" y="0px"
	 viewBox="0 0 45.3 45.3" enable-background="new 0 0 45.3 45.3" xml:space="preserve">
<g>
	<g>
		<path fill="#515A62" d="M18.8,31.8l-5.9,7l-4-4.1l6.9-5.9L30,14.5l-4-4.1L30.3,6l4,4.1l1-1l3,3l-1,1c1,1.6,1.8,5.4,2.3,11.1
			L33,17.5L18.8,31.8z"/>
		<path id="wrench-icon_9_" fill="#515A62" d="M35.3,33.8L19.7,18.2c-0.7-0.7-1.1-1.7-1-2.7c0.1-1.9-0.5-3.9-2-5.4
			C14.8,8.1,12,7.6,9.6,8.4l4.4,4.4c0.1,1.7-2.5,4.3-4.2,4.2l-4.4-4.4C4.5,15,5.1,17.8,7,19.7c1.5,1.5,3.5,2.1,5.4,2
			c1-0.1,2,0.3,2.7,1l15.7,15.7c1.3,1.3,3.3,1.3,4.6,0C36.6,37.1,36.6,35.1,35.3,33.8z M32.9,37.2c-0.7,0-1.3-0.6-1.3-1.3
			c0-0.7,0.6-1.3,1.3-1.3c0.7,0,1.3,0.6,1.3,1.3C34.2,36.6,33.6,37.2,32.9,37.2z"/>
	</g>
</g>
</svg>
